<?xml version="1.0" standalone='no'?><!-- IBoard SVG File --><svg xmlns="http://www.w3.org/2000/svg" xmlns:xlink="http://www.w3.org/1999/xlink" viewBox="248.22 568.90 176.79 67.36" height="60.36" width="183.79" version="1.1"><!-- SVG File --><text xml:space="preserve" x="248.216080" y="623.760498" textLength="9.386666" lengthAdjust="spacingAndGlyphs"><tspan font-family="Arial" font-weight="normal" baseline-shift="0" font-size="13" fill="#000000">R</tspan></text><polygon points="258.487183,614.594421 278.440125,603.074585 278.440125,603.755432 278.440125,604.436279 259.076782,615.615662 258.781982,615.105042 " style="fill:rgb(0,0,0);fill-opacity:1.000000"/><polygon points="278.440125,603.074585 298.393127,614.594421 298.098328,615.105042 297.803497,615.615662 278.440125,604.436279 278.440125,603.755432 " style="fill:rgb(0,0,0);fill-opacity:1.000000"/><text xml:space="preserve" x="299.277527" y="622.086060" textLength="13.723333" lengthAdjust="spacingAndGlyphs"><tspan font-family="Arial" font-weight="normal" baseline-shift="0" font-size="13" fill="#000000">N</tspan><tspan font-family="Arial" font-weight="normal" baseline-shift="-2" font-size="8" fill="#000000">3</tspan></text><polygon points="276.081696,604.776672 276.081696,580.832031 276.671295,580.832031 277.260925,580.832031 277.260925,604.776672 276.671295,604.776672 " style="fill:rgb(0,0,0);fill-opacity:1.000000"/><polygon points="279.619324,604.776672 279.619324,580.832031 280.208954,580.832031 280.798553,580.832031 280.798553,604.776672 280.208954,604.776672 " style="fill:rgb(0,0,0);fill-opacity:1.000000"/><text xml:space="preserve" x="273.383453" y="579.540039" textLength="10.113334" lengthAdjust="spacingAndGlyphs"><tspan font-family="Arial" font-weight="normal" baseline-shift="0" font-size="13" fill="#FF0D0D">O</tspan></text><text xml:space="preserve" x="369.281281" y="598.038147" textLength="8.683333" lengthAdjust="spacingAndGlyphs"><tspan font-family="Arial" font-weight="normal" baseline-shift="0" font-size="13" fill="#000000">Δ</tspan></text><line x1="330.90942" y1="603.39661" x2="406.31311" y2="603.39661" style="stroke:rgb(0,0,0);stroke-width:1.179213;stroke-opacity:1.000000" stroke-linecap="butt"/><polygon points="416.336426,603.396606 404.544312,600.448547 406.313110,603.396606 404.544312,606.344666 " style="fill:rgb(0,0,0);fill-opacity:1.000000"/></svg>