<?xml version="1.0" standalone='no'?><!-- IBoard SVG File --><svg xmlns="http://www.w3.org/2000/svg" xmlns:xlink="http://www.w3.org/1999/xlink" viewBox="430.69 577.46 89.34 50.24" height="43.24" width="96.34" version="1.1"><!-- SVG File --><text xml:space="preserve" x="430.685394" y="602.841919" textLength="9.386666" lengthAdjust="spacingAndGlyphs"><tspan font-family="Arial" font-weight="normal" baseline-shift="0" font-size="13" fill="#000000">R</tspan></text><polygon points="440.956451,593.675903 454.742096,585.716736 455.036896,586.227356 455.331696,586.737976 441.546051,594.697144 441.251251,594.186523 " style="fill:rgb(0,0,0);fill-opacity:1.000000"/><text xml:space="preserve" x="456.216095" y="588.101807" textLength="9.386666" lengthAdjust="spacingAndGlyphs"><tspan font-family="Arial" font-weight="normal" baseline-shift="0" font-size="13" fill="#304FF7">N</tspan></text><polygon points="467.076752,585.716736 480.862396,593.675903 480.567596,594.186523 480.272797,594.697144 466.487152,586.737976 466.781952,586.227356 " style="fill:rgb(0,0,0);fill-opacity:1.000000"/><polygon points="465.307922,588.780457 479.093567,596.739563 478.798767,597.250183 478.503967,597.760803 464.718323,589.801636 465.013123,589.291016 " style="fill:rgb(0,0,0);fill-opacity:1.000000"/><text xml:space="preserve" x="481.746796" y="602.841919" textLength="9.386666" lengthAdjust="spacingAndGlyphs"><tspan font-family="Arial" font-weight="normal" baseline-shift="0" font-size="13" fill="#000000">C</tspan></text><polygon points="493.491882,598.925110 506.914154,606.674438 506.619354,607.185059 506.324554,607.695679 492.902252,599.946289 493.197052,599.435669 " style="fill:rgb(0,0,0);fill-opacity:1.000000"/><polygon points="491.723053,601.988770 505.145355,609.738159 504.850555,610.248779 504.555756,610.759399 491.133423,603.010010 491.428253,602.499390 " style="fill:rgb(0,0,0);fill-opacity:1.000000"/><text xml:space="preserve" x="506.914154" y="617.582153" textLength="10.113334" lengthAdjust="spacingAndGlyphs"><tspan font-family="Arial" font-weight="normal" baseline-shift="0" font-size="13" fill="#FF0D0D">O</tspan></text></svg>