<?xml version="1.0" standalone='no'?><!-- IBoard SVG File --><svg xmlns="http://www.w3.org/2000/svg" xmlns:xlink="http://www.w3.org/1999/xlink" viewBox="118.56 393.23 125.71 67.82" height="60.82" width="132.71" version="1.1"><!-- SVG File --><text xml:space="preserve" x="118.556755" y="452.058472" textLength="13.723333" lengthAdjust="spacingAndGlyphs"><tspan font-family="Arial" font-weight="normal" baseline-shift="0" font-size="13" fill="#000000">R</tspan><tspan font-family="Arial" font-weight="normal" baseline-shift="6" font-size="8" fill="#000000">1</tspan></text><polygon points="133.164505,440.389252 155.642456,427.411591 155.642456,428.092407 155.642456,428.773224 133.754105,441.410492 133.459305,440.899872 " style="fill:rgb(0,0,0);fill-opacity:1.000000"/><polygon points="155.642456,427.411591 181.173172,442.151764 181.173172,442.832581 181.173172,443.513397 155.642456,428.773224 155.642456,428.092407 " style="fill:rgb(0,0,0);fill-opacity:1.000000"/><polygon points="155.937256,431.666718 179.699158,445.385651 179.404358,445.896271 179.109558,446.406891 155.347656,432.687958 155.642456,432.177338 " style="fill:rgb(0,0,0);fill-opacity:1.000000"/><polygon points="181.173172,442.151764 206.114120,427.752014 206.703857,428.092346 206.703857,428.773163 181.173172,443.513397 181.173172,442.832581 " style="fill:rgb(0,0,0);fill-opacity:1.000000"/><polygon points="207.293320,427.751862 226.656830,438.931396 226.362030,439.442017 226.067230,439.952637 206.703857,428.773163 206.703857,428.092346 " style="fill:rgb(0,0,0);fill-opacity:1.000000"/><text xml:space="preserve" x="227.541245" y="448.778656" textLength="13.723333" lengthAdjust="spacingAndGlyphs"><tspan font-family="Arial" font-weight="normal" baseline-shift="0" font-size="13" fill="#000000">R</tspan><tspan font-family="Arial" font-weight="normal" baseline-shift="6" font-size="8" fill="#000000">2</tspan></text><polygon points="206.114120,427.752014 206.105194,405.169281 206.694794,405.169037 207.284393,405.168793 207.293320,427.751862 206.703857,428.092346 " style="fill:rgb(0,0,0);fill-opacity:1.000000"/><text xml:space="preserve" x="201.635529" y="403.877014" textLength="19.500000" lengthAdjust="spacingAndGlyphs"><tspan font-family="Arial" font-weight="normal" baseline-shift="0" font-size="13" fill="#FF0D0D">O</tspan><tspan font-family="Arial" font-weight="normal" baseline-shift="0" font-size="13" fill="#FF0D0D">H</tspan></text></svg>