<?xml version="1.0" standalone='no'?><!-- IBoard SVG File --><svg xmlns="http://www.w3.org/2000/svg" xmlns:xlink="http://www.w3.org/1999/xlink" viewBox="190.55 365.18 115.49 76.02" height="69.02" width="122.49" version="1.1"><!-- SVG File --><text xml:space="preserve" x="190.550644" y="420.336060" textLength="9.386666" lengthAdjust="spacingAndGlyphs"><tspan font-family="Arial" font-weight="normal" baseline-shift="0" font-size="13" fill="#000000">R</tspan></text><polygon points="200.821732,411.169952 220.774689,399.650116 220.774689,400.330933 220.774689,401.011749 201.411331,412.191193 201.116531,411.680573 " style="fill:rgb(0,0,0);fill-opacity:1.000000"/><polygon points="220.774689,399.650116 240.727661,411.169952 240.432861,411.680573 240.138062,412.191193 220.774689,401.011749 220.774689,400.330933 " style="fill:rgb(0,0,0);fill-opacity:1.000000"/><polygon points="218.416687,401.352173 218.407211,377.408539 218.996811,377.408295 219.586411,377.408051 219.595886,401.351685 219.006287,401.351929 " style="fill:rgb(0,0,0);fill-opacity:1.000000"/><polygon points="221.954315,401.352631 221.944839,377.407135 222.534439,377.406891 223.124039,377.406647 223.133514,401.352142 222.543915,401.352386 " style="fill:rgb(0,0,0);fill-opacity:1.000000"/><text xml:space="preserve" x="215.706375" y="376.115570" textLength="10.113334" lengthAdjust="spacingAndGlyphs"><tspan font-family="Arial" font-weight="normal" baseline-shift="0" font-size="13" fill="#FF0D0D">O</tspan></text><text xml:space="preserve" x="241.612076" y="420.336029" textLength="9.386666" lengthAdjust="spacingAndGlyphs"><tspan font-family="Arial" font-weight="normal" baseline-shift="0" font-size="13" fill="#304FF7">N</tspan></text><text xml:space="preserve"/><text xml:space="preserve" x="241.612076" y="432.204407" textLength="9.386666" lengthAdjust="spacingAndGlyphs"><tspan font-family="Arial" font-weight="normal" baseline-shift="0" font-size="13" fill="#304FF7">H</tspan></text><polygon points="251.883163,411.169922 271.246368,399.990570 271.836090,400.330902 271.836090,401.011719 252.472763,412.191162 252.177963,411.680542 " style="fill:rgb(0,0,0);fill-opacity:1.000000"/><polygon points="273.014709,400.330536 297.661591,414.560425 297.366791,415.071045 297.071991,415.581665 271.836090,401.011719 271.836090,400.330902 " style="fill:rgb(0,0,0);fill-opacity:1.000000"/><polygon points="271.246368,399.990570 271.234833,370.850830 271.824432,370.850586 272.414032,370.850342 272.425293,399.309204 271.836090,400.330902 " style="fill:rgb(0,0,0);fill-opacity:1.000000"/><polygon points="272.425293,399.309204 297.062927,385.065155 297.358032,385.575592 297.653137,386.086029 273.014709,400.330536 271.836090,400.330902 " style="fill:rgb(0,0,0);fill-opacity:1.000000"/></svg>