<?xml version="1.0" standalone='no'?><!-- IBoard SVG File --><svg xmlns="http://www.w3.org/2000/svg" xmlns:xlink="http://www.w3.org/1999/xlink" viewBox="-332.43 442.89 414.40 177.16" height="170.16" width="421.40" version="1.1"><!-- SVG File --><text xml:space="preserve" x="-308.644379" y="501.715363" textLength="13.723333" lengthAdjust="spacingAndGlyphs"><tspan font-family="Arial" font-weight="normal" baseline-shift="0" font-size="13" fill="#000000">R</tspan><tspan font-family="Arial" font-weight="normal" baseline-shift="6" font-size="8" fill="#000000">1</tspan></text><polygon points="-294.036652,490.046143 -271.558685,477.068481 -271.558685,477.749298 -271.558685,478.430115 -293.447052,491.067383 -293.741852,490.556763 " style="fill:rgb(0,0,0);fill-opacity:1.000000"/><polygon points="-271.558685,477.068481 -251.247391,488.795197 -251.542191,489.305817 -251.836990,489.816437 -271.558685,478.430115 -271.558685,477.749298 " style="fill:rgb(0,0,0);fill-opacity:1.000000"/><text xml:space="preserve" x="-250.362976" y="497.754395" textLength="8.670000" lengthAdjust="spacingAndGlyphs"><tspan font-family="Arial" font-weight="normal" baseline-shift="0" font-size="13" fill="#000000">X</tspan></text><polygon points="-273.916718,478.770538 -273.926178,454.826904 -273.336578,454.826660 -272.746979,454.826416 -272.737518,478.770050 -273.327118,478.770294 " style="fill:rgb(0,0,0);fill-opacity:1.000000"/><polygon points="-270.379059,478.771027 -270.388519,454.825500 -269.798920,454.825256 -269.209320,454.825012 -269.199860,478.770538 -269.789459,478.770782 " style="fill:rgb(0,0,0);fill-opacity:1.000000"/><text xml:space="preserve" x="-276.627014" y="453.533936" textLength="10.113334" lengthAdjust="spacingAndGlyphs"><tspan font-family="Arial" font-weight="normal" baseline-shift="0" font-size="13" fill="#FF0D0D">O</tspan></text><text xml:space="preserve" x="-180.977692" y="501.715332" textLength="13.723333" lengthAdjust="spacingAndGlyphs"><tspan font-family="Arial" font-weight="normal" baseline-shift="0" font-size="13" fill="#000000">R</tspan><tspan font-family="Arial" font-weight="normal" baseline-shift="6" font-size="8" fill="#000000">2</tspan></text><polygon points="-166.369934,490.046112 -150.059326,480.629181 -149.764526,481.139801 -149.469727,481.650421 -165.780334,491.067352 -166.075134,490.556732 " style="fill:rgb(0,0,0);fill-opacity:1.000000"/><polygon points="-137.724640,480.629211 -123.939056,488.588318 -124.233856,489.098938 -124.528656,489.609558 -138.314240,481.650452 -138.019440,481.139832 " style="fill:rgb(0,0,0);fill-opacity:1.000000"/><text xml:space="preserve" x="-123.054626" y="498.435608" textLength="13.723333" lengthAdjust="spacingAndGlyphs"><tspan font-family="Arial" font-weight="normal" baseline-shift="0" font-size="13" fill="#000000">R</tspan><tspan font-family="Arial" font-weight="normal" baseline-shift="6" font-size="8" fill="#000000">3</tspan></text><text xml:space="preserve" x="-148.585327" y="483.014252" textLength="9.386666" lengthAdjust="spacingAndGlyphs"><tspan font-family="Arial" font-weight="normal" baseline-shift="0" font-size="13" fill="#304FF7">N</tspan></text><polygon points="-144.484192,471.192566 -144.490631,454.826202 -143.901031,454.825958 -143.311432,454.825714 -143.304962,471.192078 -143.894577,471.192322 " style="fill:rgb(0,0,0);fill-opacity:1.000000"/><text xml:space="preserve" x="-148.596954" y="453.533936" textLength="9.386666" lengthAdjust="spacingAndGlyphs"><tspan font-family="Arial" font-weight="normal" baseline-shift="0" font-size="13" fill="#888888">H</tspan></text><text xml:space="preserve" x="-170.919006" y="596.308533" textLength="13.723333" lengthAdjust="spacingAndGlyphs"><tspan font-family="Arial" font-weight="normal" baseline-shift="0" font-size="13" fill="#000000">R</tspan><tspan font-family="Arial" font-weight="normal" baseline-shift="6" font-size="8" fill="#000000">2</tspan></text><polygon points="-156.311264,584.639343 -140.363998,575.432190 -140.069199,575.942810 -139.774399,576.453430 -155.721664,585.660583 -156.016464,585.149963 " style="fill:rgb(0,0,0);fill-opacity:1.000000"/><text xml:space="preserve" x="-138.889984" y="577.607422" textLength="19.500000" lengthAdjust="spacingAndGlyphs"><tspan font-family="Arial" font-weight="normal" baseline-shift="0" font-size="13" fill="#FF0D0D">O</tspan><tspan font-family="Arial" font-weight="normal" baseline-shift="0" font-size="13" fill="#FF0D0D">H</tspan></text><text xml:space="preserve" x="-308.644348" y="611.048706" textLength="13.723333" lengthAdjust="spacingAndGlyphs"><tspan font-family="Arial" font-weight="normal" baseline-shift="0" font-size="13" fill="#000000">R</tspan><tspan font-family="Arial" font-weight="normal" baseline-shift="6" font-size="8" fill="#000000">1</tspan></text><polygon points="-294.036621,599.379517 -271.558624,586.401794 -271.558655,587.082642 -271.558685,587.763489 -293.447021,600.400757 -293.741821,599.890137 " style="fill:rgb(0,0,0);fill-opacity:1.000000"/><polygon points="-271.558655,586.401794 -251.247375,598.128540 -251.542175,598.639160 -251.836975,599.149780 -271.558655,587.763489 -271.558655,587.082642 " style="fill:rgb(0,0,0);fill-opacity:1.000000"/><text xml:space="preserve" x="-250.362961" y="607.087769" textLength="8.670000" lengthAdjust="spacingAndGlyphs"><tspan font-family="Arial" font-weight="normal" baseline-shift="0" font-size="13" fill="#000000">X</tspan></text><polygon points="-273.916687,588.103882 -273.926147,564.160278 -273.336548,564.160034 -272.746948,564.159790 -272.737488,588.103394 -273.327087,588.103638 " style="fill:rgb(0,0,0);fill-opacity:1.000000"/><polygon points="-270.379028,588.104370 -270.388489,564.158936 -269.798889,564.158691 -269.209290,564.158447 -269.199829,588.103882 -269.789429,588.104126 " style="fill:rgb(0,0,0);fill-opacity:1.000000"/><text xml:space="preserve" x="-276.626984" y="562.867310" textLength="10.113334" lengthAdjust="spacingAndGlyphs"><tspan font-family="Arial" font-weight="normal" baseline-shift="0" font-size="13" fill="#FF0D0D">O</tspan></text><text xml:space="preserve" x="-68.547974" y="472.264526" textLength="101.879997" lengthAdjust="spacingAndGlyphs"><tspan font-family="Arial" font-weight="normal" baseline-shift="0" font-size="13" fill="#000000">base (e.g. NaOH)</tspan></text><line x1="-88.948318" y1="477.62286" x2="43.709061" y2="477.62286" style="stroke:rgb(0,0,0);stroke-width:1.179213;stroke-opacity:1.000000" stroke-linecap="butt"/><polygon points="53.732361,477.622864 41.940247,474.674774 43.709061,477.622864 41.940247,480.570862 " style="fill:rgb(0,0,0);fill-opacity:1.000000"/><text xml:space="preserve" x="-215.422684" y="476.278229" textLength="7.593333" lengthAdjust="spacingAndGlyphs"><tspan font-family="Arial" font-weight="normal" baseline-shift="0" font-size="13" fill="#000000">+</tspan></text><text xml:space="preserve" x="-215.422684" y="585.611694" textLength="7.593333" lengthAdjust="spacingAndGlyphs"><tspan font-family="Arial" font-weight="normal" baseline-shift="0" font-size="13" fill="#000000">+</tspan></text><text xml:space="preserve" x="-68.547974" y="581.597900" textLength="101.879997" lengthAdjust="spacingAndGlyphs"><tspan font-family="Arial" font-weight="normal" baseline-shift="0" font-size="13" fill="#000000">base (e.g. NaOH)</tspan></text><line x1="-88.948318" y1="586.95624" x2="43.709045" y2="586.95624" style="stroke:rgb(0,0,0);stroke-width:1.179213;stroke-opacity:1.000000" stroke-linecap="butt"/><polygon points="53.732361,586.956238 41.940231,584.008240 43.709045,586.956238 41.940231,589.904236 " style="fill:rgb(0,0,0);fill-opacity:1.000000"/><line x1="-326.75604" y1="528.82281" x2="73.305237" y2="528.82281" style="stroke:rgb(0,0,0);stroke-width:1.179213;stroke-opacity:1.000000" stroke-dasharray="2.358425 2.358425" stroke-linecap="butt"/></svg>